<?xml version="1.0" encoding="UTF-8" standalone="no"?>
<svg
   width="16"
   height="16"
   fill="currentColor"
   class="bi bi-house-fill"
   viewBox="0 0 16 16"
   version="1.1"
   id="svg1021"
   sodipodi:docname="idh-fill.svg"
   inkscape:version="1.1 (c68e22c387, 2021-05-23)"
   xmlns:inkscape="http://www.inkscape.org/namespaces/inkscape"
   xmlns:sodipodi="http://sodipodi.sourceforge.net/DTD/sodipodi-0.dtd"
   xmlns="http://www.w3.org/2000/svg"
   xmlns:svg="http://www.w3.org/2000/svg">
  <defs
     id="defs1025" />
  <sodipodi:namedview
     id="namedview1023"
     pagecolor="#ffffff"
     bordercolor="#999999"
     borderopacity="1"
     inkscape:pageshadow="0"
     inkscape:pageopacity="0"
     inkscape:pagecheckerboard="0"
     showgrid="false"
     inkscape:zoom="64"
     inkscape:cx="9.9765625"
     inkscape:cy="8.9453125"
     inkscape:window-width="3840"
     inkscape:window-height="2097"
     inkscape:window-x="1912"
     inkscape:window-y="-8"
     inkscape:window-maximized="1"
     inkscape:current-layer="svg1021" />
  <path
     id="path1017"
     style="fill:#88aa00;fill-opacity:1"
     d="M 11.5 2 A 0.5 0.5 0 0 0 11 2.5 L 11 4 L 13 6 L 13 2.5 A 0.5 0.5 0 0 0 12.5 2 L 11.5 2 z M 8 3.2929688 L 2 9.2929688 L 2 13.5 A 1.5 1.5 0 0 0 3.5 15 L 12.5 15 A 1.5 1.5 0 0 0 14 13.5 L 14 9.2929688 L 8 3.2929688 z M 6.3554688 5.796875 A 0.26922435 0.26922435 0 0 1 6.625 6.0664062 L 6.625 6.8730469 L 7.1621094 6.8730469 L 7.1621094 6.0664062 A 0.26922479 0.26922479 0 0 1 7.7011719 6.0664062 L 7.7011719 6.8730469 L 8.2402344 6.8730469 L 8.2402344 6.0664062 A 0.26922435 0.26922435 0 0 1 8.7792969 6.0664062 L 8.7792969 6.8730469 L 9.3164062 6.8730469 L 9.3164062 6.0664062 A 0.26922435 0.26922435 0 0 1 9.8554688 6.0664062 L 9.8554688 6.8730469 A 1.3461218 1.3461218 0 0 1 11.201172 8.21875 L 12.009766 8.21875 A 0.26922444 0.26922444 0 0 1 12.009766 8.7578125 L 11.201172 8.7578125 L 11.201172 9.296875 L 12.009766 9.296875 A 0.26922451 0.26922451 0 0 1 12.009766 9.8339844 L 11.201172 9.8339844 L 11.201172 10.373047 L 12.009766 10.373047 A 0.26922458 0.26922458 0 0 1 12.009766 10.912109 L 11.201172 10.912109 L 11.201172 11.449219 L 12.009766 11.449219 A 0.2692244 0.2692244 0 0 1 12.009766 11.988281 L 11.201172 11.988281 A 1.3461218 1.3461218 0 0 1 9.8554688 13.333984 L 9.8554688 14.142578 A 0.26922435 0.26922435 0 0 1 9.3164062 14.142578 L 9.3164062 13.333984 L 8.7792969 13.333984 L 8.7792969 14.142578 A 0.26922435 0.26922435 0 0 1 8.2402344 14.142578 L 8.2402344 13.333984 L 7.7011719 13.333984 L 7.7011719 14.142578 A 0.26922479 0.26922479 0 0 1 7.1621094 14.142578 L 7.1621094 13.333984 L 6.625 13.333984 L 6.625 14.142578 A 0.26922435 0.26922435 0 0 1 6.0859375 14.142578 L 6.0859375 13.333984 A 1.3461218 1.3461218 0 0 1 4.7402344 11.988281 L 3.9316406 11.988281 A 0.2692244 0.2692244 0 0 1 3.9316406 11.449219 L 4.7402344 11.449219 L 4.7402344 10.912109 L 3.9316406 10.912109 A 0.26922458 0.26922458 0 0 1 3.9316406 10.373047 L 4.7402344 10.373047 L 4.7402344 9.8339844 L 3.9316406 9.8339844 A 0.26922451 0.26922451 0 0 1 3.9316406 9.296875 L 4.7402344 9.296875 L 4.7402344 8.7578125 L 3.9316406 8.7578125 A 0.26922444 0.26922444 0 0 1 3.9316406 8.21875 L 4.7402344 8.21875 A 1.3461218 1.3461218 0 0 1 6.0859375 6.8730469 L 6.0859375 6.0664062 A 0.26922435 0.26922435 0 0 1 6.3554688 5.796875 z M 7.1621094 8.4882812 A 0.80767307 0.80767307 0 0 0 6.3554688 9.296875 L 6.3554688 10.912109 A 0.80767307 0.80767307 0 0 0 7.1621094 11.71875 L 8.7792969 11.71875 A 0.80767307 0.80767307 0 0 0 9.5859375 10.912109 L 9.5859375 9.296875 A 0.80767307 0.80767307 0 0 0 8.7792969 8.4882812 L 7.1621094 8.4882812 z M 7.1621094 9.0273438 L 8.7792969 9.0273438 A 0.26922435 0.26922435 0 0 1 9.046875 9.296875 L 9.046875 10.912109 A 0.26922435 0.26922435 0 0 1 8.7792969 11.181641 L 7.1621094 11.181641 A 0.26922435 0.26922435 0 0 1 6.8945312 10.912109 L 6.8945312 9.296875 A 0.26922435 0.26922435 0 0 1 7.1621094 9.0273438 z " />
  <path
     fill-rule="evenodd"
     d="M7.293 1.5a1 1 0 0 1 1.414 0l6.647 6.646a.5.5 0 0 1-.708.708L8 2.207 1.354 8.854a.5.5 0 1 1-.708-.708L7.293 1.5z"
     id="path1019"
     style="fill:#88aa00;fill-opacity:1" />
</svg>
