<?xml version="1.0" standalone="no"?>
<!DOCTYPE svg PUBLIC "-//W3C//DTD SVG 20010904//EN"
 "http://www.w3.org/TR/2001/REC-SVG-20010904/DTD/svg10.dtd">
<svg version="1.0" xmlns="http://www.w3.org/2000/svg"
 width="700.000000pt" height="700.000000pt" viewBox="0 0 700.000000 700.000000"
 preserveAspectRatio="xMidYMid meet">
<metadata>
Created by potrace 1.14, written by Peter Selinger 2001-2017
</metadata>
<g transform="translate(0.000000,700.000000) scale(0.100000,-0.100000)"
fill="#000000" stroke="none">
<path d="M3085 6933 c-649 -84 -1243 -336 -1750 -741 -56 -44 -107 -88 -115
-98 -8 -11 1 -6 20 10 19 16 60 41 90 55 49 23 67 26 171 26 113 0 116 -1 191
-38 249 -123 321 -431 152 -652 -19 -26 -32 -51 -28 -58 16 -26 246 -347 253
-351 3 -2 38 46 76 107 100 157 288 426 429 610 67 88 127 167 134 176 9 13
10 31 1 77 -6 33 -9 109 -6 174 5 136 41 260 109 375 57 96 192 230 293 289
74 43 77 46 45 45 -19 -1 -48 -4 -65 -6z"/>
<path d="M3925 6894 c97 -57 236 -193 287 -279 101 -175 140 -375 107 -560
l-11 -62 107 -154 c134 -192 271 -399 392 -594 52 -82 98 -153 101 -157 4 -4
68 78 141 183 l133 190 -27 35 c-166 218 -93 530 153 651 75 37 78 38 191 38
111 0 119 -1 184 -33 263 -129 328 -470 130 -683 -59 -63 -103 -92 -182 -119
-83 -28 -207 -26 -281 4 -11 4 -57 -54 -170 -216 -85 -122 -156 -228 -158
-235 -2 -8 1 -19 6 -26 23 -28 219 -391 318 -588 274 -548 509 -1150 642
-1644 l19 -69 68 -41 c140 -82 281 -252 340 -408 56 -149 68 -335 30 -477 -8
-30 -13 -55 -11 -57 1 -1 34 52 73 120 259 445 399 868 465 1397 17 140 17
601 0 745 -8 61 -25 171 -38 245 -263 1455 -1421 2586 -2881 2815 -220 35
-223 34 -128 -21z"/>
<path d="M1034 5917 c-393 -402 -653 -827 -824 -1347 -269 -815 -228 -1696
115 -2484 57 -132 213 -431 221 -423 2 1 -2 36 -8 77 -28 201 34 419 168 597
64 84 140 148 246 210 68 40 77 48 83 81 14 75 136 484 205 687 170 499 407
1027 655 1464 42 73 75 136 73 140 -2 4 -70 103 -153 219 l-150 212 -40 -8
c-22 -4 -83 -7 -135 -7 -86 0 -101 3 -162 32 -193 91 -297 302 -244 498 14 55
60 150 76 160 10 6 33 45 27 45 -2 0 -71 -69 -153 -153z"/>
<path d="M3469 5308 c-73 -93 -215 -291 -317 -444 -186 -279 -427 -699 -413
-719 4 -5 92 -128 196 -272 103 -145 189 -263 190 -263 2 0 31 13 66 30 192
89 425 92 627 8 40 -17 74 -29 76 -27 13 18 334 477 339 486 13 21 -162 357
-361 693 -106 180 -349 560 -358 560 -2 0 -22 -24 -45 -52z"/>
<path d="M2595 3875 c-135 -289 -288 -685 -388 -1005 -53 -167 -167 -572 -167
-592 0 -5 18 -46 39 -91 63 -130 75 -190 75 -357 0 -137 -2 -150 -32 -240
-159 -466 -665 -694 -1102 -498 l-65 29 90 -92 c501 -509 1176 -860 1880 -978
222 -37 336 -46 595 -45 265 0 418 13 640 55 463 88 913 274 1305 540 192 130
473 370 579 493 l45 53 -77 -38 c-117 -59 -215 -81 -357 -81 -238 0 -426 81
-591 255 -88 92 -143 183 -185 307 -31 90 -33 103 -33 240 -1 157 11 221 60
331 l26 58 -56 206 c-130 475 -289 926 -483 1366 -31 71 -59 129 -62 129 -3
-1 -70 -93 -149 -206 l-143 -206 43 -46 c91 -98 164 -232 194 -359 24 -99 22
-267 -5 -368 -43 -163 -138 -312 -264 -415 -83 -68 -225 -137 -326 -158 l-81
-17 0 -638 c0 -598 1 -638 18 -643 95 -31 132 -52 193 -113 77 -77 115 -150
128 -246 44 -311 -252 -568 -548 -476 -178 55 -296 202 -308 381 -15 212 104
380 320 453 16 6 17 46 17 645 l0 639 -40 7 c-281 45 -531 267 -620 551 -31
98 -38 264 -16 371 29 143 87 259 187 376 l49 57 -149 208 c-82 114 -158 219
-169 233 l-20 25 -47 -100z"/>
</g>
</svg>
